<svg xmlns="http://www.w3.org/2000/svg" width="512" height="512" viewBox="0 0 512 512">
  <rect width="512" height="512" rx="108" fill="#06020F"/>
  <rect width="512" height="512" rx="108" fill="url(#bg)" opacity="0.6"/>
  <defs>
    <radialGradient id="bg" cx="30%" cy="20%" r="80%">
      <stop offset="0%" stop-color="#8B5CF6" stop-opacity="0.4"/>
      <stop offset="100%" stop-color="#06020F" stop-opacity="0"/>
    </radialGradient>
    <linearGradient id="bolt" x1="0%" y1="0%" x2="100%" y2="100%">
      <stop offset="0%" stop-color="#C4B5FD"/>
      <stop offset="50%" stop-color="#8B5CF6"/>
      <stop offset="100%" stop-color="#7C3AED"/>
    </linearGradient>
    <linearGradient id="glow" x1="0%" y1="0%" x2="100%" y2="100%">
      <stop offset="0%" stop-color="#2DD4BF" stop-opacity="0.6"/>
      <stop offset="100%" stop-color="#8B5CF6" stop-opacity="0.3"/>
    </linearGradient>
  </defs>
  <circle cx="256" cy="256" r="140" fill="none" stroke="url(#glow)" stroke-width="6" opacity="0.4"/>
  <circle cx="256" cy="256" r="110" fill="none" stroke="url(#glow)" stroke-width="3" opacity="0.2"/>
  <g transform="translate(160, 120) scale(4)">
    <path d="M25.946 44.938c-.664.845-2.021.375-2.021-.698V33.937a2.26 2.26 0 0 0-2.262-2.262H10.287c-.92 0-1.456-1.04-.92-1.788l7.48-10.471c1.07-1.497 0-3.578-1.842-3.578H1.237c-.92 0-1.456-1.04-.92-1.788L10.013.474c.214-.297.556-.474.92-.474h28.894c.92 0 1.456 1.04.92 1.788l-7.48 10.471c-1.07 1.498 0 3.579 1.842 3.579h11.377c.943 0 1.473 1.088.89 1.83L25.947 44.94z" fill="url(#bolt)"/>
  </g>
</svg>
